<?xml version="1.0" ?><svg data-name="Layer 2" id="Layer_2" viewBox="0 0 32 32" xmlns="http://www.w3.org/2000/svg"><title/><path d="M21.4517,12.3613a.5.5,0,0,1-.5-.5V9.9164a.501.501,0,0,1,.1406-.3476l1.5332-1.5855a.5.5,0,1,1,.7187.6954l-1.3925,1.44v1.7427A.5.5,0,0,1,21.4517,12.3613Z"/><path d="M17.1489,24.1582h-8.84a.5.5,0,0,1,0-1h8.84a.5.5,0,1,1,0,1Z"/><path d="M17.1489,21.0029h-8.84a.5.5,0,1,1,0-1h8.84a.5.5,0,0,1,0,1Z"/><path d="M17.1489,17.8477h-8.84a.5.5,0,1,1,0-1h8.84a.5.5,0,0,1,0,1Z"/><path d="M17.1489,14.6924h-8.84a.5.5,0,0,1,0-1h8.84a.5.5,0,0,1,0,1Z"/><path d="M13.9517,11.5361H8.3091a.5.5,0,0,1,0-1h5.6426a.5.5,0,0,1,0,1Z"/><path d="M13.9517,7.2373H8.3091a.5.5,0,0,1,0-1h5.6426a.5.5,0,0,1,0,1Z"/><path d="M26.0483,10.0957a4.5865,4.5865,0,0,0-4.0966-4.5452V5.0674A1.0681,1.0681,0,0,0,20.8852,4H7.019A1.0682,1.0682,0,0,0,5.9517,5.0674V26.9326A1.0682,1.0682,0,0,0,7.019,28H20.8852a1.0681,1.0681,0,0,0,1.0665-1.0674V14.6418A4.5875,4.5875,0,0,0,26.0483,10.0957ZM6.9517,26.9326,7.019,5l13.9327.0674v.4831a4.57,4.57,0,0,0-.0024,9.0911L20.8852,27Zm14.5-13.24a3.5962,3.5962,0,1,1,3.5966-3.5967A3.6,3.6,0,0,1,21.4517,13.6924Z"/></svg>