<svg version="1.1" xmlns="http://www.w3.org/2000/svg" xmlns:xlink="http://www.w3.org/1999/xlink" width="100.353px" height="100.353px" viewBox="0,0,256,256"><g fill="#ffffff" fill-rule="nonzero" stroke="none" stroke-width="1" stroke-linecap="butt" stroke-linejoin="miter" stroke-miterlimit="10" stroke-dasharray="" stroke-dashoffset="0" font-family="none" font-weight="none" font-size="none" text-anchor="none" style="mix-blend-mode: normal"><g transform="translate(0.12755,0.94259) scale(2.55099,2.55099)"><g><path d="M32.286,42.441h-9.762c-0.829,0 -1.5,0.671 -1.5,1.5v9.762c0,0.828 0.671,1.5 1.5,1.5h9.762c0.829,0 1.5,-0.672 1.5,-1.5v-9.762c0,-0.828 -0.671,-1.5 -1.5,-1.5zM30.786,52.203h-6.762v-6.762h6.762z"></path><path d="M55.054,42.441h-9.762c-0.829,0 -1.5,0.671 -1.5,1.5v9.762c0,0.828 0.671,1.5 1.5,1.5h9.762c0.828,0 1.5,-0.672 1.5,-1.5v-9.762c0,-0.828 -0.672,-1.5 -1.5,-1.5zM53.554,52.203h-6.762v-6.762h6.762z"></path><path d="M77.12,42.441h-9.762c-0.828,0 -1.5,0.671 -1.5,1.5v9.762c0,0.828 0.672,1.5 1.5,1.5h9.762c0.828,0 1.5,-0.672 1.5,-1.5v-9.762c0,-0.828 -0.672,-1.5 -1.5,-1.5zM75.62,52.203h-6.762v-6.762h6.762z"></path><path d="M32.286,64.677h-9.762c-0.829,0 -1.5,0.672 -1.5,1.5v9.762c0,0.828 0.671,1.5 1.5,1.5h9.762c0.829,0 1.5,-0.672 1.5,-1.5v-9.762c0,-0.828 -0.671,-1.5 -1.5,-1.5zM30.786,74.439h-6.762v-6.762h6.762z"></path><path d="M55.054,64.677h-9.762c-0.829,0 -1.5,0.672 -1.5,1.5v9.762c0,0.828 0.671,1.5 1.5,1.5h9.762c0.828,0 1.5,-0.672 1.5,-1.5v-9.762c0,-0.828 -0.672,-1.5 -1.5,-1.5zM53.554,74.439h-6.762v-6.762h6.762z"></path><path d="M77.12,64.677h-9.762c-0.828,0 -1.5,0.672 -1.5,1.5v9.762c0,0.828 0.672,1.5 1.5,1.5h9.762c0.828,0 1.5,-0.672 1.5,-1.5v-9.762c0,-0.828 -0.672,-1.5 -1.5,-1.5zM75.62,74.439h-6.762v-6.762h6.762z"></path><path d="M89,13.394h-9.907c-0.013,0 -0.024,0.003 -0.037,0.004v-1.998c0,-3.268 -2.658,-5.926 -5.926,-5.926c-3.268,0 -5.926,2.659 -5.926,5.926v1.994h-11.163v-1.994c0,-3.268 -2.658,-5.926 -5.926,-5.926c-3.268,0 -5.926,2.659 -5.926,5.926v1.994h-11.164v-1.994c0,-3.268 -2.658,-5.926 -5.926,-5.926c-3.268,0 -5.926,2.659 -5.926,5.926v1.995c-0.005,0 -0.01,-0.001 -0.015,-0.001h-9.905c-0.829,0 -1.5,0.671 -1.5,1.5v77.746c0,0.828 0.671,1.5 1.5,1.5h77.747c0.828,0 1.5,-0.672 1.5,-1.5v-77.746c0,-0.829 -0.672,-1.5 -1.5,-1.5zM70.204,11.4c0,-1.614 1.312,-2.926 2.926,-2.926c1.614,0 2.926,1.312 2.926,2.926v8.277c0,1.613 -1.312,2.926 -2.926,2.926c-1.614,0 -2.926,-1.312 -2.926,-2.926zM50.115,8.474c1.613,0 2.926,1.312 2.926,2.926v8.277c0,1.613 -1.312,2.926 -2.926,2.926c-1.614,0 -2.926,-1.312 -2.926,-2.926v-4.643c0.004,-0.047 0.014,-0.092 0.014,-0.141c0,-0.049 -0.01,-0.094 -0.014,-0.141v-3.352c0,-1.614 1.312,-2.926 2.926,-2.926zM24.173,11.4c0,-1.614 1.312,-2.926 2.926,-2.926c1.613,0 2.926,1.312 2.926,2.926v8.277c0,1.613 -1.312,2.926 -2.926,2.926c-1.614,0 -2.926,-1.312 -2.926,-2.926zM87.5,91.14h-74.747v-74.746h8.405c0.005,0 0.01,-0.001 0.015,-0.001v3.285c0,3.268 2.659,5.926 5.926,5.926c3.267,0 5.926,-2.658 5.926,-5.926v-3.283h11.164v3.283c0,3.268 2.659,5.926 5.926,5.926c3.267,0 5.926,-2.658 5.926,-5.926v-3.283h11.163v3.283c0,3.268 2.658,5.926 5.926,5.926c3.268,0 5.926,-2.658 5.926,-5.926v-3.288c0.013,0 0.024,0.004 0.037,0.004h8.407z"></path></g></g></g></svg>