<svg version="1.1" xmlns="http://www.w3.org/2000/svg" xmlns:xlink="http://www.w3.org/1999/xlink" width="32px" height="32px" viewBox="0,0,256,256"><g fill="#ffffff" fill-rule="nonzero" stroke="none" stroke-width="1" stroke-linecap="butt" stroke-linejoin="miter" stroke-miterlimit="10" stroke-dasharray="" stroke-dashoffset="0" font-family="none" font-weight="none" font-size="none" text-anchor="none" style="mix-blend-mode: normal"><g transform="scale(8,8)"><path d="M21.4517,12.3613c-0.27614,0 -0.5,-0.22386 -0.5,-0.5v-1.9449c0.00011,-0.1297 0.05051,-0.2543 0.1406,-0.3476l1.5332,-1.5855c0.19203,-0.19846 0.50859,-0.20368 0.70705,-0.01165c0.19846,0.19203 0.20368,0.50859 0.01165,0.70705l-1.3925,1.44v1.7427c-0.00006,0.2761 -0.2239,0.4999 -0.5,0.4999z"></path><path d="M17.1489,24.1582h-8.84c-0.27614,0 -0.5,-0.22386 -0.5,-0.5c0,-0.27614 0.22386,-0.5 0.5,-0.5h8.84c0.27614,0 0.5,0.22386 0.5,0.5c0,0.27614 -0.22386,0.5 -0.5,0.5z"></path><path d="M17.1489,21.0029h-8.84c-0.27614,0 -0.5,-0.22386 -0.5,-0.5c0,-0.27614 0.22386,-0.5 0.5,-0.5h8.84c0.27614,0 0.5,0.22386 0.5,0.5c0,0.27614 -0.22386,0.5 -0.5,0.5z"></path><path d="M17.1489,17.8477h-8.84c-0.27614,0 -0.5,-0.22386 -0.5,-0.5c0,-0.27614 0.22386,-0.5 0.5,-0.5h8.84c0.27614,0 0.5,0.22386 0.5,0.5c0,0.27614 -0.22386,0.5 -0.5,0.5z"></path><path d="M17.1489,14.6924h-8.84c-0.27614,0 -0.5,-0.22386 -0.5,-0.5c0,-0.27614 0.22386,-0.5 0.5,-0.5h8.84c0.27614,0 0.5,0.22386 0.5,0.5c0,0.27614 -0.22386,0.5 -0.5,0.5z"></path><path d="M13.9517,11.5361h-5.6426c-0.27614,0 -0.5,-0.22386 -0.5,-0.5c0,-0.27614 0.22386,-0.5 0.5,-0.5h5.6426c0.27614,0 0.5,0.22386 0.5,0.5c0,0.27614 -0.22386,0.5 -0.5,0.5z"></path><path d="M13.9517,7.2373h-5.6426c-0.27614,0 -0.5,-0.22386 -0.5,-0.5c0,-0.27614 0.22386,-0.5 0.5,-0.5h5.6426c0.27614,0 0.5,0.22386 0.5,0.5c0,0.27614 -0.22386,0.5 -0.5,0.5z"></path><path d="M26.0483,10.0957c-0.00768,-2.33767 -1.77229,-4.29552 -4.0966,-4.5452v-0.4831c-0.00039,-0.589 -0.4775,-1.06652 -1.0665,-1.0674h-13.8662c-0.58929,0.0005 -1.06686,0.47811 -1.0673,1.0674v21.8652c0.00044,0.58929 0.47801,1.0669 1.0673,1.0674h13.8662c0.589,-0.00088 1.06611,-0.4784 1.0665,-1.0674v-12.2908c2.32443,-0.25016 4.08892,-2.20826 4.0966,-4.5461zM6.9517,26.9326l0.0673,-21.9326l13.9327,0.0674v0.4831c-2.3287,0.24123 -4.09849,2.2033 -4.0991,4.54447c-0.00062,2.34117 1.76813,4.30417 4.0967,4.54663l-0.0641,12.3584zM21.4517,13.6926c-1.98601,-0.00022 -3.59586,-1.61029 -3.5958,-3.5963c0.00006,-1.98601 1.60999,-3.59599 3.596,-3.5961c1.98601,-0.00011 3.59612,1.60969 3.5964,3.5957c-0.00193,1.98553 -1.61107,3.59463 -3.5966,3.5965z"></path></g></g></svg>