<svg version="1.1" xmlns="http://www.w3.org/2000/svg" xmlns:xlink="http://www.w3.org/1999/xlink" width="1230.2px" height="1029.86px" viewBox="0,0,256,214.30469"><g fill="#ffffff" fill-rule="nonzero" stroke="none" stroke-width="1" stroke-linecap="butt" stroke-linejoin="miter" stroke-miterlimit="10" stroke-dasharray="" stroke-dashoffset="0" font-family="none" font-weight="none" font-size="none" text-anchor="none" style="mix-blend-mode: normal"><g transform="translate(0.00104,-0.0037) scale(0.2081,0.2081)"><g id="Слой_2"><g id="Слой_1-2"><path d="M662,521.28v-169.94h42.66l25.67,115.86l25.33,-115.86h42.84v169.94h-26.5v-133.83l-28.09,133.83h-27.47l-28,-133.84v133.84zM954.26,521.28h-31.04l-12.22,-38.73h-56.6l-11.61,38.73h-30.4l55.08,-169.95h30.24zM901.8,454l-19.61,-63.08l-19,63.08zM988.11,351.38h97.75v141.31h12.43v65.69h-23.87v-37.1h-88.93v37.1h-23.69v-65.69h11.93c5.88,-14.55 9.81,-31.38 11.61,-50.66c1.79,-19.12 2.78,-43.47 2.78,-72.72v-18zM1015.24,379.81c0,51.64 -3.76,89.39 -11.61,112.92h53.78v-112.96h-42.18zM1117.73,351.38h26.81v113.04l57.21,-113.08h28.44v169.94h-26.65v-111l-57.21,111h-28.61z"></path><path d="M0,522.43v-8.49h643.21v8.82c-42.17,2 -45.27,4.74 -87.12,12.26c-39.23,6 -129.13,59.48 -134.85,117.82h-19.62c-1,-61.11 -37.27,-111.93 -109.35,-111.93c-68,0 -127.5,46.73 -127.82,111.93h-17.83c-0.82,-62.11 -74.86,-130.41 -146.62,-130.41z"></path><path d="M143.52,448.07l-36.29,-0.16l-39.39,21.57h-49.2l-18.64,18.63v9.15h250.26v-11.93l-6.05,-1.33v-10.1l-37.1,-6l-17.17,-19.78h-24.19l-10.62,-18.62h74.37l-20.6,-14.76v-6.54h25.66l32.53,43.47l23.54,0.33v-15.85h-15.2v-6.7h118.19l12.75,11.44l-9.65,13.11c-21.41,-19 -62.91,-29.78 -86.31,13.07l-43,0.33l-34.15,-30.6h-30.4v11.27l10.62,17.49l21.08,0.33l-1.8,-13.89c14.55,5.07 20.27,17.48 22.89,31.7l67.24,0.33c0,-47.1 67,-47.6 67,1l8.82,0.33l25.67,-38.57v-7.19l-39.56,-45.92h-123.12l-6.05,-17.49h-76.83l0.18,10.81h4.09l8,28.6l-59.83,-0.17v10.79l12.26,21.89zM295.37,409.07h87.78v9.15h-87.78zM355.72,453.9c-15.81191,0 -28.63,12.81809 -28.63,28.63c0,15.81191 12.81809,28.63 28.63,28.63c15.81191,0 28.63,-12.81809 28.63,-28.63c0.01328,-7.60089 -2.99754,-14.89487 -8.36844,-20.27327c-5.37089,-5.3784 -12.66066,-8.3994 -20.26156,-8.39673zM370.57,482.31c-0.02208,8.09677 -6.5998,14.64468 -14.69659,14.62998c-8.09679,-0.01471 -14.65068,-6.58647 -14.64335,-14.68327c0.00734,-8.0968 6.57314,-14.65667 14.66994,-14.6567c8.09811,0.00552 14.66,6.57189 14.66,14.67z"></path><path d="M181.28,305.91c178,-311.13 610.68,-324.53 775,0h-108.74c-85.33,-123.38 -169.54,-185.31 -333.46,-186.61c-163.92,-1.3 -301.91,102.29 -347.84,263.7h-25.66c56.23,-227 254,-382.38 496.75,-383c255,5.23 403.26,166.19 467.33,305.91h-99.06c-157.41,-348.39 -653.35,-352.48 -824.32,0z"></path><path d="M32.53,500.19c1.47,7.74 11.47,11.27 21.66,10.94c10.15,0.32 20.23,-3.21 21.66,-10.94z"></path><path d="M174.42,500.19c1.43,7.73 11.51,11.26 21.66,10.94c10.15,0.32 20.23,-3.21 21.66,-10.94z"></path><path d="M1125.46,560.51c-29.71,177.42 -184,312.62 -369.83,312.62c-146.11,0 -272.5,-83.56 -334.39,-205.49h-274.62c63.35,209.61 258,362.23 488.25,362.23c268,0 487.69,-206.7 508.4,-469.36zM273.79,683.7h45.21c33.69866,64.57008 82.58059,119.98607 142.44,161.48h-60.18c-54.03231,-43.61578 -97.59182,-98.7973 -127.47,-161.48zM644,945.25c-70.89358,-7.23811 -139.13342,-30.85999 -199.33,-69l53.72,-8.06c53.88217,30.07802 113.43522,48.61109 174.87,54.42zM693.63,946.67c-4.1,0 -10.18,0.94 -14.26,0.84l18.8,-23.2c6,0.24 13.94,-0.64 20,-0.64c41.11,0 78.91,-4.55 116.72,-14.93l11.85,12.26c-48.49,17.27 -98.74,25.68 -153.12,25.68zM874.76,910l-13.19,-9.49c43.42551,-14.93077 84.28648,-36.47436 121.14,-63.87l5.74,3.24c-34.30433,28.75104 -72.60023,52.37061 -113.69,70.12z"></path></g></g></g></g></svg>