<svg xmlns="http://www.w3.org/2000/svg" viewBox="0 0 1230.2 1029.86"><title>Ресурс 1</title><g id="Слой_2" data-name="Слой 2"><g id="Слой_1-2" data-name="Слой 1"><path d="M662,521.28V351.34h42.66l25.67,115.86,25.33-115.86H798.5V521.28H772V387.45L743.91,521.28H716.44l-28-133.84V521.28H662Zm292.26,0H923.22L911,482.55H854.4l-11.61,38.73h-30.4l55.08-169.95h30.24l56.55,169.95ZM901.8,454l-19.61-63.08-19,63.08H901.8Zm86.31-102.62h97.75V492.69h12.43v65.69h-23.87v-37.1H985.49v37.1H961.8V492.69h11.93c5.88-14.55,9.81-31.38,11.61-50.66,1.79-19.12,2.78-43.47,2.78-72.72v-18Zm27.13,28.43c0,51.64-3.76,89.39-11.61,112.92h53.78V379.77h-42.18Zm102.49-28.43h26.81V464.42l57.21-113.08h28.44V521.28h-26.65v-111l-57.21,111h-28.61Z"/><path d="M0,522.43v-8.49H643.21v8.82c-42.17,2-45.27,4.74-87.12,12.26-39.23,6-129.13,59.48-134.85,117.82H401.62c-1-61.11-37.27-111.93-109.35-111.93-68,0-127.5,46.73-127.82,111.93H146.62C145.8,590.73,71.76,522.43,0,522.43Z"/><path d="M143.52,448.07l-36.29-.16L67.84,469.48H18.64L0,488.11v9.15H250.26V485.33L244.21,484V473.9l-37.1-6-17.17-19.78H165.75l-10.62-18.62h74.37L208.9,414.74V408.2h25.66l32.53,43.47,23.54.33V436.15h-15.2v-6.7H393.62l12.75,11.44L396.72,454c-21.41-19-62.91-29.78-86.31,13.07l-43,.33L233.26,436.8h-30.4v11.27l10.62,17.49,21.08.33L232.76,452c14.55,5.07,20.27,17.48,22.89,31.7l67.24.33c0-47.1,67-47.6,67,1l8.82.33,25.67-38.57v-7.19l-39.56-45.92H261.7l-6.05-17.49H178.82L179,387h4.09l8,28.6-59.83-.17v10.79l12.26,21.89Zm151.85-39h87.78v9.15H295.37Zm60.35,44.83a28.63,28.63,0,1,0,28.63,28.63A28.62,28.62,0,0,0,355.72,453.86Zm14.85,28.41A14.67,14.67,0,1,1,355.9,467.6,14.67,14.67,0,0,1,370.56,482.27Z"/><path d="M181.28,305.91c178-311.13,610.68-324.53,775,0H847.54C762.21,182.53,678,120.6,514.08,119.3S212.17,221.59,166.24,383H140.58c56.23-227,254-382.38,496.75-383,255,5.23,403.26,166.19,467.33,305.91H1005.6c-157.41-348.39-653.35-352.48-824.32,0Z"/><path d="M32.53,500.19C34,507.93,44,511.46,54.19,511.13c10.15.32,20.23-3.21,21.66-10.94Z"/><path d="M174.42,500.19c1.43,7.73,11.51,11.26,21.66,10.94,10.15.32,20.23-3.21,21.66-10.94Z"/><path d="M1125.46,560.51c-29.71,177.42-184,312.62-369.83,312.62-146.11,0-272.5-83.56-334.39-205.49H146.62c63.35,209.61,258,362.23,488.25,362.23,268,0,487.69-206.7,508.4-469.36ZM273.79,683.7H319A449.58,449.58,0,0,0,461.44,845.18H401.26A464.23,464.23,0,0,1,273.79,683.7ZM644,945.25a459.67,459.67,0,0,1-199.33-69l53.72-8.06a444.64,444.64,0,0,0,174.87,54.42Zm49.63,1.42c-4.1,0-10.18.94-14.26.84l18.8-23.2c6,.24,13.94-.64,20-.64,41.11,0,78.91-4.55,116.72-14.93L846.74,921C798.25,938.27,748,946.68,693.62,946.68ZM874.76,910l-13.19-9.49a446.28,446.28,0,0,0,121.14-63.87l5.74,3.24A462.54,462.54,0,0,1,874.76,910Z"/></g></g></svg>